# xmcd CD database file
#
# Track frame offsets:
#	183
#	14569
#	28250
#	42465
#	56745
#	70821
#	85129
#	98678
#	114636
#	125964
#	140065
#	154517
#	166598
#	179610
#	192448
#	204295
#
# Disc length: 2895 seconds
#
# Revision: 0
# Processed by: cddbd v1.5.1PL0 Copyright (c) Steve Scherf et al.
# Submitted via: CDex 1.51
#
DISCID=e60b4d10
DTITLE=Compilation - Jazz in chicago
DYEAR=2003
DGENRE=Jazz
TTITLE0=Louis Armstrong, Hot Seven - Willie the weeper (Oliver)
TTITLE1=Bix Beiderbecke, Singin' the blues (Robinson, Conrad)
TTITLE2=Mezzrow/Ladnier Quintet, Royal garden blues (Smith)
TTITLE3=Pinetop Smith, Pinetop boogie woogie (Smith)
TTITLE4=Jimmie Noone, Apex blues (Noone)
TTITLE5=Bessie Smith, Young woman blues (B. Smith)
TTITLE6=Mc Kinney's cotton pickers, Miss hannah (Redman,Nesbitt)
TTITLE7=Jelly Roll Morton's "Red Hot Peppers", Sidewalk blues (Morton)
TTITLE8=King Oliver "Creole Jazz Band", Canal Street Blues (Oliver, Armstrong)
TTITLE9=Ma Rainey, Bad luck blues (Austin)
TTITLE10=Johnny Dodds "washboard Band", Bucktown stomp (Dodds)
TTITLE11=Earl Hines "Big Band", Grand' Terrace Shuffle (Hines)
TTITLE12=Louis Armstromg "Hot Five", Sunset cafe stomp (Venable, Armstrong)
TTITLE13=Fletcher Henderson, Clarinet marmelade (Rapas,Shields)
TTITLE14=Big Bill Broonzy, Tadpole blues (Broonzy)
TTITLE15=Sidney Bechet "New Orleans Feetwarmers", sweetie dear (Jordan)
EXTD=YEAR: 2003
EXTT0=
EXTT1=
EXTT2=
EXTT3=
EXTT4=
EXTT5=
EXTT6=
EXTT7=
EXTT8=
EXTT9=
EXTT10=
EXTT11=
EXTT12=
EXTT13=
EXTT14=
EXTT15=
PLAYORDER=
